# xmcd
#
# Track frame offsets: 
#        188
#        14565
#        28235
#        41493
#        53713
#        63205
#        77970
#        90353
#        106233
#        118390
#        133090
#        145020
#        157658
#        168715
#        181975
#        193553
#        207068
#        221433
#        236520
#        248870
#        259930
#        273650
#        286323
#        297875
#        310453
#
# Disc length: 4285 seconds
#
# Revision: 1
# Processed by: cddbd v1.5.2PL0 Copyright (c) Steve Scherf et al.
# Submitted via: ExactAudioCopyFreeDBPlugin 1.0
#
DISCID=7010bb19
DTITLE=Various Artist - The 30's Girls 1932 - 1940
DYEAR=1995
DGENRE=Jazz
TTITLE0=Monette Moore - A Shine On Your Shoes-Louisana Hayride 1932
TTITLE1=Alberta Hunter - You Can't Tell The Difference After Dark 1935
TTITLE2=Alberta Hunter - Second Handed Man (Second Hand Man) 1935
TTITLE3=Monette Moore - Rhythm For Sale (Swing Shop Swing!) 1936
TTITLE4=Monette Moore - Two Old Maids In A Folding Bed 1936
TTITLE5=Amanda Randolph - For Sentimental Reasons 1936
TTITLE6=Amanda Randolph - Doin' The Suzy-Q 1938
TTITLE7=Amanda Randolph - He May Be Your Man (But He Comes to See Me S
TTITLE7=ometimes) 1936
TTITLE8=Amanda Randolph - Honey, Please Don't Turn Your Back On Me 193
TTITLE8=6
TTITLE9=Amanda Randolph - Please Don't Talk About My Man 1936
TTITLE10=Amanda Randolph - I've Got Something In My Eye 1938
TTITLE11=Ivie Anderson - The Old Plantation1937
TTITLE12=Ivie Anderson - All God's Chillun Got Rhythm 1937
TTITLE13=Jerry Kruger - The Bed Song 1937
TTITLE14=Jerry Kruger - So You Won't Sing 1937
TTITLE15=Rosetta Crawford - I'm Tired Of Fattening Frogs For Snakes 19
TTITLE15=39
TTITLE16=Rosetta Crawford - Stop It, Joe 1939
TTITLE17=Rosetta Crawford - My Man Jumped Salty On Me 1939
TTITLE18=Rosetta Crawford - Double Crossin' Papa 1939
TTITLE19=Jerry Kruger - Rain, Rain, Go Away 1939
TTITLE20=Jerry Kruger - Summertime 1939
TTITLE21=Alberta Hunter - The Love I Have For You 1940
TTITLE22=Alberta Hunter - My Castle's Rockin' 1940
TTITLE23=Alberta Hunter - Boogie-Woogie Swing 1940
TTITLE24=Alberta Hunter - I Won't Let You Down 1940
EXTD=YEAR: 1995
EXTT0=
EXTT1=
EXTT2=
EXTT3=
EXTT4=
EXTT5=
EXTT6=
EXTT7=
EXTT8=
EXTT9=
EXTT10=
EXTT11=
EXTT12=
EXTT13=
EXTT14=
EXTT15=
EXTT16=
EXTT17=
EXTT18=
EXTT19=
EXTT20=
EXTT21=
EXTT22=
EXTT23=
EXTT24=
PLAYORDER=
